<?xml version="1.0" encoding="UTF-8" standalone="no"?>
<svg
   xmlns="http://www.w3.org/2000/svg"
   viewBox="0 0 868.75189 859.5658"
   height="859.5658"
   width="868.75189"
   version="1.1">
  <g transform="translate(-88.741578,-103.11652)" >
    <path
       d="m 505.5,962.42623 c -2.2,-0.21246 -10.3,-0.87784 -18,-1.47862 C 411.95268,955.05315 332.75875,927.4566 272,885.85276 254.98539,874.20221 237.46136,860.49794 237.77478,859.0877 c 0.15112,-0.68 -0.15943,-0.968 -0.69013,-0.64001 -0.76027,0.46987 -5.64985,-2.99952 -9.08465,-6.44599 -0.275,-0.27594 -5.80725,-5.4132 -12.29389,-11.41614 -7.37041,-6.8208 -11.59419,-11.43484 -11.26145,-12.30193 0.29284,-0.76313 0.12599,-1.13631 -0.37077,-0.8293 C 201.55475,829.01125 174.46569,795.99722 158.57184,772 76.990173,648.82444 66.134825,490.14875 129.99433,354.27448 c 3.01148,-6.40754 5.71341,-10.95511 6.29528,-10.59549 0.5918,0.36575 0.71301,0.13427 0.28897,-0.55185 -2.64753,-4.28378 49.76126,-82.88925 53.65886,-80.4804 0.63108,0.39004 0.78073,0.19168 0.36404,-0.48254 C 189.08265,259.70668 226.16379,221.8537 245.5,206.12297 408.74318,73.318522 621.05163,68.560394 786.42897,194 c 22.23712,16.86697 61.28816,53.68881 60.13265,56.70002 -0.26931,0.70179 0.006,1.16889 0.61148,1.03798 1.61426,-0.34891 15.94877,16.50204 15.35467,18.05022 -0.27767,0.72361 -0.0849,1.05612 0.42835,0.7389 1.82047,-1.12511 20.75245,25.48137 35.55847,49.97288 106.52631,176.21142 64.8412,418.17864 -93.51459,542.81934 -15.42044,12.13732 -26.1712,19.69289 -27.15536,19.08464 -0.69938,-0.43224 -0.88262,-0.27445 -0.46536,0.40069 0.42052,0.68041 -3.3125,3.71653 -9.59549,7.80415 C 708.31951,929.29534 640.00237,953.19899 568,960.51167 c -14.89265,1.51252 -54.19608,2.7165 -62.5,1.91456 z M 567,874.15302 c 6.325,-1.16556 14.2,-2.9411 17.5,-3.94564 l 6,-1.82643 V 852.94047 837.5 L 523.25,837.19941 456,836.89883 v 15.10681 c 0,17.31712 0.004,17.32226 18.38872,21.06616 22.35512,4.55256 70.71033,5.1171 92.61128,1.08122 z m 64,-73.56633 c 113.77719,-12.94747 176.92324,-67.30554 189.48241,-163.1123 2.54989,-19.45162 2.22858,-191.17147 -0.38564,-206.10346 -3.67773,-21.0066 -9.93515,-40.30861 -17.30203,-53.37093 -1.70604,-3.025 -3.96853,-7.03983 -5.02775,-8.92184 C 765.89607,312.4503 707.18205,281.20582 606.5,267.29602 584.42007,264.24556 458.49071,264.61411 437,267.79209 309.66844,286.62152 247.12191,333.81538 227.32537,426 c -2.78166,12.95307 -2.80215,200.80752 -0.0237,217 17.42095,101.52622 89.19731,154.42589 216.1983,159.33966 29.93961,1.15839 173.72949,-0.18593 187.5,-1.75297 z M 504.22951,743.9849 c -29.39353,-7.70153 -54.30163,-37.31068 -54.21306,-64.445 0.0752,-23.04582 28.28636,-23.1834 31.96502,-0.15589 7.35912,46.06625 76.56936,45.8846 83.92437,-0.22027 3.97229,-24.9003 33.49571,-21.76099 31.76478,3.37764 -2.84001,41.24606 -50.61871,72.66362 -93.44111,61.44352 z M 353,607.31999 c -37.98103,-3.90597 -69.00739,-31.86187 -76.4849,-68.91573 -17.3334,-85.89357 13.13452,-159.32348 72.8981,-175.6897 11.86985,-3.25054 333.9368,-3.52927 346.5868,-0.29994 40.07678,10.23092 68.1034,40.7109 75.01858,81.58548 2.42123,14.31148 0.75848,92.36375 -2.1516,100.9999 -12.11676,35.95854 -39.56569,58.85076 -74.36698,62.02154 -9.21609,0.83969 -333.48147,1.12307 -341.5,0.29845 z m 8.58004,-84.20567 c 4.5766,-2.7908 6.85637,-8.29042 5.80756,-14.00985 -1.95487,-10.66034 -1.13197,-20.15238 2.36233,-27.24916 18.98629,-38.56031 78.22868,-18.76317 69.47892,23.21791 -2.64426,12.68708 3.02066,20.83505 13.65251,19.63668 21.6025,-2.43491 16.89001,-49.65773 -7.21941,-72.34405 C 404.55176,413.68226 340,443.12455 340,500.55866 c 0,19.94311 9.52988,29.90383 21.58004,22.55566 z m 242.23014,-0.13995 c 5.22583,-3.18611 6.66571,-7.84626 5.15431,-16.68198 -3.19808,-18.69616 4.52223,-34.6331 20.3012,-41.90746 27.66946,-12.75608 59.8085,13.2769 51.78217,41.94414 -4.77545,17.05622 17.71722,26.41778 24.98832,10.40027 23.35096,-51.43983 -53.82905,-105.23975 -98.97943,-68.99566 -31.5461,25.32337 -34.52278,94.30926 -3.24657,75.24069 z M 188,548.94098 C 188,488.075 187.7853,477 186.60534,477 c -49.12059,0 -67.668,87.04604 -27.18706,127.59333 9.20703,9.22211 24.79078,18.63157 27.78867,16.77877 C 187.64313,621.10252 188,588.50852 188,548.94098 Z m 681.96266,68.84985 c 42.04318,-20.72859 55.31739,-87.21285 24.15193,-120.96557 -10.13327,-10.9745 -25.10804,-19.82443 -33.54609,-19.82538 -0.75059,-9e-5 -0.99027,21.57061 -0.80556,72.5 0.14461,39.87507 0.57781,72.50012 0.96266,72.50012 0.38485,0 4.54153,-1.89413 9.23706,-4.20917 z M 181.25,445.95582 c 5.09602,-0.87661 6.76078,-1.56479 6.79401,-2.80847 0.0242,-0.90604 0.1367,-11.52667 0.25,-23.6014 0.20599,-21.95406 0.20599,-21.95406 4.12768,-22.77005 5.36631,-1.11658 6.06061,-1.87859 9.20153,-10.09896 1.50823,-3.94732 5.59365,-12.80194 9.07871,-19.67694 7.13973,-14.08459 7.17668,-14.52979 2.01788,-24.31259 -18.81762,-35.68442 -72.627,-21.14318 -71.82725,19.41032 0.29901,15.16217 10.68832,29.81425 24.47002,34.51015 L 170,398.188 v 25.01441 c 0,25.01441 0,25.01441 2.25,24.46448 1.2375,-0.30247 5.2875,-1.07244 9,-1.71107 z M 877,422.5 c 0,-24.14941 0.098,-25.5 1.85106,-25.5 12.48914,0 26.67884,-19.18581 26.6098,-35.97897 -0.18374,-44.69552 -59.92395,-53.64017 -74.89298,-11.21342 -1.49669,4.24207 -1.49669,4.24207 5.35028,17.46723 3.76584,7.27384 8.05405,16.4612 9.52937,20.41637 2.61271,7.00441 2.80669,7.23249 7.46733,8.78051 5.36772,1.78287 6.08514,5.96236 6.08514,35.45039 v 12.61098 l 7.75,1.57984 c 4.2625,0.86892 8.3125,1.64897 9,1.73346 0.97134,0.11937 1.25,-5.53113 1.25,-25.34639 z M 539.31703,229.04263 c 16.85351,-6.47971 27.84155,-26.51311 24.70037,-45.03374 -5.58623,-32.93681 -47.14806,-45.59633 -70.08233,-21.34672 -30.15016,31.87935 4.24887,82.195 45.38196,66.38046 z"
       style="fill:#000000" />
  </g>
</svg>
